<?xml version="1.0" standalone="no"?>
<!DOCTYPE svg PUBLIC "-//W3C//DTD SVG 20010904//EN"
 "http://www.w3.org/TR/2001/REC-SVG-20010904/DTD/svg10.dtd">
<svg version="1.0" xmlns="http://www.w3.org/2000/svg"
 width="200.000000pt" height="200.000000pt" viewBox="0 0 200.000000 200.000000"
 preserveAspectRatio="xMidYMid meet">
<metadata>
Created by potrace 1.14, written by Peter Selinger 2001-2017
</metadata>
<g transform="translate(0.000000,200.000000) scale(0.100000,-0.100000)"
fill="#000000" stroke="none">
<path d="M806 1985 c-130 -27 -269 -85 -374 -157 -68 -46 -197 -173 -248 -244
-58 -81 -129 -231 -156 -329 -19 -68 -22 -106 -22 -255 0 -149 3 -187 22 -253
46 -168 123 -305 242 -430 101 -106 174 -161 301 -221 155 -75 224 -90 429
-90 149 0 187 3 253 22 168 46 305 123 430 242 106 101 161 174 221 301 75
155 90 224 90 429 0 191 -13 263 -71 393 -71 161 -203 326 -338 422 -83 60
-233 130 -330 156 -104 28 -346 35 -449 14z m-552 -482 c-31 -61 -33 -153 -4
-201 11 -18 20 -40 20 -48 0 -9 12 -43 26 -75 l27 -59 21 43 21 42 3 -35 c4
-55 12 -81 22 -75 6 4 10 -8 10 -27 0 -36 60 -160 75 -155 6 2 24 30 40 63 17
34 37 71 46 83 13 17 15 31 8 66 -10 52 -2 88 13 61 14 -25 25 -19 32 15 5 26
-2 44 -35 98 -23 36 -57 81 -77 100 l-36 33 35 -7 c49 -11 81 -32 107 -71 26
-40 61 -45 92 -14 11 11 20 16 20 12 0 -5 -9 -35 -20 -67 -25 -72 -25 -107 -1
-129 10 -9 21 -37 25 -62 7 -54 31 -104 51 -104 14 0 36 39 50 89 6 20 4 23
-9 18 -13 -5 -15 -2 -9 21 4 15 7 36 6 47 0 11 -2 56 -4 100 -2 46 2 88 8 99
10 17 11 15 11 -17 0 -42 35 -107 47 -87 5 8 11 5 22 -9 17 -26 33 -27 33 -3
0 12 5 10 18 -10 14 -24 24 -28 59 -28 38 0 46 4 63 32 l19 31 6 -26 c4 -14
13 -31 20 -37 11 -10 8 -18 -20 -46 -19 -19 -43 -34 -54 -34 -26 0 -36 -17
-20 -36 18 -22 87 -8 122 25 l28 26 -11 -30 c-6 -16 -15 -34 -20 -40 -13 -16
-22 -108 -12 -124 11 -16 32 -6 32 15 0 8 5 14 10 14 10 0 100 133 100 149 0
12 121 126 150 141 17 8 11 -1 -17 -27 -24 -22 -43 -47 -43 -56 0 -20 16 -23
24 -4 4 6 4 -2 2 -19 -3 -19 1 -40 10 -53 9 -12 13 -32 10 -44 -5 -23 26 -87
43 -87 31 0 68 161 44 192 -6 9 -6 29 0 58 l10 45 10 -53 c7 -46 11 -52 28
-47 13 5 19 2 19 -10 0 -9 6 -15 13 -12 6 2 22 -11 35 -29 29 -43 62 -62 62
-37 0 14 7 10 26 -14 22 -29 31 -33 72 -33 27 0 57 7 70 16 12 8 22 12 22 7 0
-4 5 -1 10 7 24 37 3 157 -36 203 -15 18 -13 17 10 -3 16 -14 35 -40 43 -58 7
-18 20 -35 28 -39 31 -11 11 -110 -38 -183 -31 -46 -89 -95 -112 -95 -16 0
-45 -25 -45 -38 0 -6 -12 -29 -27 -51 l-28 -39 -5 33 c-4 28 -13 38 -50 56
-57 29 -56 29 -64 -3 -5 -17 -2 -31 8 -41 13 -13 11 -17 -17 -36 -38 -26 -45
-51 -21 -77 15 -17 15 -19 1 -19 -9 0 -19 5 -22 10 -12 20 -25 9 -25 -20 0
-16 -11 -51 -24 -77 -13 -27 -28 -61 -33 -78 -10 -34 -39 -52 -103 -60 l-45
-6 37 20 c51 29 81 74 83 126 0 24 6 49 12 57 7 8 7 21 2 36 -13 33 -48 25
-77 -18 l-25 -35 6 45 c6 47 42 90 75 90 9 0 30 16 45 35 22 27 26 39 18 49
-9 10 -7 22 5 47 38 74 37 71 12 67 -13 -2 -31 -17 -43 -36 -32 -54 -115 -152
-127 -152 -6 0 -2 10 9 23 29 31 45 66 39 82 -2 7 6 21 20 29 25 17 29 39 18
96 -7 32 -8 32 -53 27 -30 -3 -51 -12 -63 -27 -21 -26 -24 -66 -5 -73 7 -3 5
-6 -6 -6 -15 -1 -17 -9 -12 -64 5 -70 -14 -115 -57 -138 -22 -12 -23 -11 -5 8
25 28 24 109 -2 125 -15 9 -17 15 -8 29 29 47 -48 28 -106 -26 -21 -19 -42
-35 -48 -35 -15 0 -49 -62 -49 -90 l-1 -25 -19 23 c-19 23 -19 24 2 80 22 61
45 95 59 86 5 -2 23 3 41 12 31 16 31 16 9 28 -12 7 -20 14 -18 17 3 2 7 21
11 43 l7 38 -40 -4 c-34 -3 -41 -1 -41 14 0 13 -8 18 -30 18 -27 0 -30 -3 -30
-34 0 -19 -5 -36 -12 -38 -7 -3 -12 -21 -12 -41 0 -27 -4 -36 -13 -33 -9 4
-13 -7 -14 -37 -1 -82 -5 -96 -29 -122 -27 -28 -80 -58 -80 -45 0 5 4 12 10
15 6 3 10 28 10 55 0 64 -21 73 -68 28 -52 -50 -63 -83 -55 -180 3 -45 10 -92
15 -103 5 -11 -5 -5 -21 14 -49 55 -61 106 -48 198 7 56 17 86 34 106 23 28
28 61 17 105 -8 28 -10 27 -61 -28 -38 -42 -41 -49 -34 -80 9 -44 3 -73 -14
-67 -9 4 -14 -16 -17 -84 -4 -77 -7 -93 -27 -112 l-23 -22 11 22 c15 30 14
109 -3 141 -8 15 -23 36 -35 46 -14 13 -19 26 -15 42 4 15 -4 41 -23 75 l-28
53 -3 -56 c-2 -31 4 -86 13 -123 18 -79 20 -108 5 -85 -7 11 -10 5 -10 -23 0
-29 14 -62 57 -133 59 -99 77 -171 54 -210 -9 -16 -10 -13 -11 19 0 50 -21 88
-69 126 -22 18 -54 55 -71 84 -17 29 -43 62 -58 74 l-26 22 28 12 c26 12 28
16 22 58 -3 24 -8 47 -11 49 -3 3 -19 -4 -35 -16 l-29 -22 20 47 c38 87 13
244 -46 293 -21 18 -45 76 -45 109 l1 26 17 -30 c15 -28 17 -29 20 -8 2 12 -1
47 -7 77 -12 63 -1 150 29 228 15 41 45 88 55 88 1 0 -8 -21 -21 -47z"/>
<path d="M888 1178 c12 -13 22 -35 22 -47 0 -21 3 -23 33 -17 17 4 43 18 57
31 l25 25 -26 0 c-14 0 -30 -5 -37 -12 -9 -9 -12 -8 -12 5 0 11 -8 17 -21 17
-11 0 -30 5 -42 11 l-22 12 23 -25z"/>
<path d="M1318 1133 c-10 -11 -18 -25 -18 -31 0 -7 -4 -12 -10 -12 -5 0 -10
-10 -10 -21 0 -16 3 -19 13 -12 6 6 24 13 40 17 25 6 40 36 18 36 -5 0 -11 10
-13 21 -3 21 -3 21 -20 2z"/>
<path d="M1566 1046 c-3 -12 -6 -42 -6 -68 0 -35 4 -48 14 -48 8 0 31 -9 50
-21 32 -18 37 -19 42 -5 3 8 30 27 60 42 30 15 57 30 60 35 7 13 -42 22 -82
16 -23 -4 -34 -2 -34 6 0 7 -22 24 -49 38 -49 26 -49 26 -55 5z"/>
<path d="M811 1004 c0 -11 3 -14 6 -6 3 7 2 16 -1 19 -3 4 -6 -2 -5 -13z"/>
<path d="M745 870 c3 -5 8 -10 11 -10 2 0 4 5 4 10 0 6 -5 10 -11 10 -5 0 -7
-4 -4 -10z"/>
</g>
</svg>
